<svg id="Layer_1" data-name="Layer 1" xmlns="http://www.w3.org/2000/svg" viewBox="0 0 1136.73 680.75"><defs><style>.cls-1{fill:#ffcf92;}.cls-2{fill:none;}.cls-2,.cls-3{stroke:#000;stroke-miterlimit:10;}.cls-3{fill:#f4f05d;}.cls-4{font-size:26.88px;}.cls-4,.cls-5{font-family:MyriadPro-Regular, Myriad Pro;}.cls-5{font-size:131.48px;}</style></defs><path class="cls-1" d="M160.19,633c-5.76-9.37-12.25-25.86-14.43-36.65,0,0-39.87-196.83-40-205.05L102.14,194a19.63,19.63,0,0,1,19.64-20H148.9c11,0,21.26,8.91,22.79,19.81l17.72,126.14c1.53,10.89,3.44,10.83,4.25-.14l14.88-202.57a21.91,21.91,0,0,1,21.46-20h24.38a22,22,0,0,1,21.49,19.94S293.56,354.81,293.56,348,307.61,66.57,307.61,66.57a21.34,21.34,0,0,1,21-20h29.86a21.9,21.9,0,0,1,21.45,20L399,328c.8,11,1.78,11,2.18,0l6.76-184.69a22.09,22.09,0,0,1,20.71-20.85l23.05-1a21.79,21.79,0,0,1,22.22,19s40.23,356.84,38.86,345.88,69.66-164,69.66-164c4.63-10,17-15.42,27.49-12.1l18,5.72c10.49,3.33,18.56,15,17.93,26l-8.69,153.22c-.62,11-7.41,26.41-15.09,34.29l-24.52,25.18a170.07,170.07,0,0,0-23.37,32l-47.92,89.8c-5.17,9.71-17.88,20.7-28.23,24.43l-38.39,13.84c-10.35,3.72-27.82,6.78-38.82,6.78H234.45c-11,0-24.71-7.67-30.46-17Z" transform="translate(-101.64 -41.15)"/><path class="cls-2" d="M160.19,633c-5.76-9.37-12.25-25.86-14.43-36.65,0,0-39.87-196.83-40-205.05L102.14,194a19.63,19.63,0,0,1,19.64-20H148.9c11,0,21.26,8.91,22.79,19.81l17.72,126.14c1.53,10.89,3.44,10.83,4.25-.14l14.88-202.57a21.91,21.91,0,0,1,21.46-20h24.38a22,22,0,0,1,21.49,19.94S293.56,354.81,293.56,348,307.61,66.57,307.61,66.57a21.34,21.34,0,0,1,21-20h29.86a21.9,21.9,0,0,1,21.45,20L399,328c.8,11,1.78,11,2.18,0l6.76-184.69a22.09,22.09,0,0,1,20.71-20.85l23.05-1a21.79,21.79,0,0,1,22.22,19s40.23,356.84,38.86,345.88,69.66-164,69.66-164c4.63-10,17-15.42,27.49-12.1l18,5.72c10.49,3.33,18.56,15,17.93,26l-8.69,153.22c-.62,11-7.41,26.41-15.09,34.29l-24.52,25.18a170.07,170.07,0,0,0-23.37,32l-47.92,89.8c-5.17,9.71-17.88,20.7-28.23,24.43l-38.39,13.84c-10.35,3.72-27.82,6.78-38.82,6.78H234.45c-11,0-24.71-7.67-30.46-17Z" transform="translate(-101.64 -41.15)"/><rect class="cls-1" x="8.36" y="150.11" width="52.74" height="52.74" rx="10"/><rect class="cls-2" x="8.36" y="150.11" width="52.74" height="52.74" rx="10"/><rect class="cls-1" x="112.81" y="66.9" width="52.74" height="52.74" rx="10"/><rect class="cls-2" x="112.81" y="66.9" width="52.74" height="52.74" rx="10"/><rect class="cls-1" x="217.32" y="23.06" width="52.74" height="52.74" rx="10"/><rect class="cls-2" x="217.32" y="23.06" width="52.74" height="52.74" rx="10"/><rect class="cls-1" x="312.81" y="103.88" width="52.74" height="52.74" rx="10"/><rect class="cls-2" x="312.81" y="103.88" width="52.74" height="52.74" rx="10"/><rect class="cls-1" x="580.21" y="336.47" width="52.74" height="52.74" rx="10" transform="translate(-54.98 753.06) rotate(-68.5)"/><rect class="cls-2" x="580.21" y="336.47" width="52.74" height="52.74" rx="10" transform="translate(-54.98 753.06) rotate(-68.5)"/><circle class="cls-3" cx="139.18" cy="150.11" r="30"/><circle class="cls-3" cx="243.69" cy="103.88" r="30"/><circle class="cls-3" cx="339.18" cy="186.62" r="30"/><circle class="cls-3" cx="488.09" cy="376.13" r="30"/><circle class="cls-3" cx="34.73" cy="232.85" r="30"/><text class="cls-4" transform="translate(26.85 241.33) scale(1.59 1)">5</text><text class="cls-4" transform="translate(129.17 156.62) scale(1.59 1)">4</text><text class="cls-4" transform="translate(231.91 111.88) scale(1.59 1)">3</text><text class="cls-4" transform="translate(330.54 194.24) scale(1.59 1)">2</text><text class="cls-4" transform="translate(477.12 384.02) scale(1.59 1)">1</text><path class="cls-1" d="M1179.82,628c5.75-9.37,12.25-25.86,14.43-36.64,0,0,39.87-196.84,40-205.06l3.57-197.28a19.62,19.62,0,0,0-19.63-20H1191.1c-11,0-21.25,8.91-22.78,19.81L1150.6,315c-1.53,10.89-3.44,10.83-4.25-.14l-14.88-202.57a21.91,21.91,0,0,0-21.46-20h-24.39a21.93,21.93,0,0,0-21.48,19.94S1046.45,349.87,1046.45,343s-14-281.39-14-281.39a21.34,21.34,0,0,0-21-20H981.51a21.9,21.9,0,0,0-21.45,20l-19,261.48c-.8,11-1.78,10.95-2.19,0l-6.75-184.69A22.09,22.09,0,0,0,911.4,117.5l-23.06-1a21.79,21.79,0,0,0-22.22,19S825.9,492.34,827.27,481.38s-69.67-164-69.67-164c-4.63-10-17-15.42-27.48-12.1l-18,5.72c-10.49,3.33-18.56,15-17.94,26l8.7,153.21c.62,11,7.41,26.41,15.08,34.29l24.52,25.18a169.19,169.19,0,0,1,23.37,32l47.92,89.8c5.18,9.71,17.88,20.7,28.23,24.43l38.4,13.84c10.35,3.73,27.81,6.78,38.81,6.78h186.37c11,0,24.71-7.67,30.47-17.05Z" transform="translate(-101.64 -41.15)"/><path class="cls-2" d="M1179.82,628c5.75-9.37,12.25-25.86,14.43-36.64,0,0,39.87-196.84,40-205.06l3.57-197.28a19.62,19.62,0,0,0-19.63-20H1191.1c-11,0-21.25,8.91-22.78,19.81L1150.6,315c-1.53,10.89-3.44,10.83-4.25-.14l-14.88-202.57a21.91,21.91,0,0,0-21.46-20h-24.39a21.93,21.93,0,0,0-21.48,19.94S1046.45,349.87,1046.45,343s-14-281.39-14-281.39a21.34,21.34,0,0,0-21-20H981.51a21.9,21.9,0,0,0-21.45,20l-19,261.48c-.8,11-1.78,10.95-2.19,0l-6.75-184.69A22.09,22.09,0,0,0,911.4,117.5l-23.06-1a21.79,21.79,0,0,0-22.22,19S825.9,492.34,827.27,481.38s-69.67-164-69.67-164c-4.63-10-17-15.42-27.48-12.1l-18,5.72c-10.49,3.33-18.56,15-17.94,26l8.7,153.21c.62,11,7.41,26.41,15.08,34.29l24.52,25.18a169.19,169.19,0,0,1,23.37,32l47.92,89.8c5.18,9.71,17.88,20.7,28.23,24.43l38.4,13.84c10.35,3.73,27.81,6.78,38.81,6.78h186.37c11,0,24.71-7.67,30.47-17.05Z" transform="translate(-101.64 -41.15)"/><rect class="cls-1" x="1075.63" y="145.18" width="52.74" height="52.74" rx="10"/><rect class="cls-2" x="1075.63" y="145.18" width="52.74" height="52.74" rx="10"/><rect class="cls-1" x="971.17" y="61.96" width="52.74" height="52.74" rx="10"/><rect class="cls-2" x="971.17" y="61.96" width="52.74" height="52.74" rx="10"/><rect class="cls-1" x="866.67" y="18.12" width="52.74" height="52.74" rx="10"/><rect class="cls-2" x="866.67" y="18.12" width="52.74" height="52.74" rx="10"/><rect class="cls-1" x="771.17" y="98.94" width="52.74" height="52.74" rx="10"/><rect class="cls-2" x="771.17" y="98.94" width="52.74" height="52.74" rx="10"/><rect class="cls-1" x="707.06" y="331.54" width="52.74" height="52.74" rx="10" transform="translate(-181.78 252.57) rotate(-21.5)"/><rect class="cls-2" x="707.06" y="331.54" width="52.74" height="52.74" rx="10" transform="translate(-181.78 252.57) rotate(-21.5)"/><circle class="cls-3" cx="997.54" cy="145.18" r="30"/><circle class="cls-3" cx="893.04" cy="98.94" r="30"/><circle class="cls-3" cx="797.54" cy="181.68" r="30"/><circle class="cls-3" cx="648.64" cy="371.19" r="30"/><circle class="cls-3" cx="1102" cy="227.91" r="30"/><text class="cls-4" transform="translate(631.79 384.02) scale(1.59 1)">1</text><text class="cls-4" transform="translate(785.34 186.62) scale(1.59 1)">2</text><text class="cls-4" transform="translate(882.6 103.88) scale(1.59 1)">3</text><text class="cls-4" transform="translate(985.34 156.62) scale(1.59 1)">4</text><text class="cls-4" transform="translate(1090.82 232.85) scale(1.59 1)">5</text><text class="cls-5" transform="translate(135.07 542.58) scale(1.2 1)">LH</text><text class="cls-5" transform="translate(827.55 542.58) scale(1.2 1)">RH</text></svg>